<?xml version="1.0" standalone="no"?>
<!DOCTYPE svg PUBLIC "-//W3C//DTD SVG 20010904//EN"
 "http://www.w3.org/TR/2001/REC-SVG-20010904/DTD/svg10.dtd">
<svg version="1.0" xmlns="http://www.w3.org/2000/svg"
 width="360.000000pt" height="360.000000pt" viewBox="0 0 360.000000 360.000000"
 preserveAspectRatio="xMidYMid meet">
<metadata>
Created by potrace 1.14, written by Peter Selinger 2001-2017
</metadata>
<g transform="translate(0.000000,360.000000) scale(0.100000,-0.100000)"
fill="#000000" stroke="none">
<path d="M2525 2955 c-33 -12 -89 -32 -125 -45 -179 -63 -539 -225 -680 -306
-284 -163 -444 -303 -518 -453 -35 -71 -37 -80 -37 -170 0 -125 24 -182 109
-267 100 -99 226 -144 412 -149 56 -1 125 1 155 6 30 5 74 12 99 15 24 3 53
10 65 14 16 7 13 9 -16 9 -91 2 -235 41 -320 87 -62 34 -130 100 -150 145 -40
88 -39 88 -33 29 7 -67 42 -146 80 -182 50 -48 77 -68 90 -68 7 0 16 -5 19
-10 4 -7 -5 -9 -27 -5 -241 42 -361 149 -360 322 0 222 314 457 824 618 120
38 141 43 170 44 9 1 23 7 30 14 13 14 19 22 120 156 31 42 63 83 70 91 7 8
24 31 38 50 13 19 30 41 37 48 11 11 19 35 11 31 -2 -1 -30 -11 -63 -24z"/>
<path d="M1729 2024 c-48 -7 -102 -17 -120 -23 l-34 -9 35 -2 c52 -3 92 -8
120 -16 14 -3 36 -8 50 -11 38 -7 153 -55 168 -70 7 -7 16 -13 20 -13 12 -1
78 -64 100 -96 11 -16 24 -42 27 -57 11 -43 25 -31 19 16 -7 51 -44 133 -76
167 -30 31 -84 70 -98 70 -5 0 -10 5 -10 11 0 6 8 8 18 6 9 -3 42 -11 72 -18
211 -47 327 -197 284 -366 -50 -194 -315 -385 -739 -533 -119 -42 -212 -68
-248 -69 -9 -1 -25 -11 -35 -22 -9 -12 -22 -26 -27 -33 -6 -6 -22 -27 -35 -46
-13 -19 -27 -37 -30 -40 -3 -3 -39 -50 -80 -105 -41 -55 -81 -106 -88 -114
-33 -34 -1 -27 208 51 141 53 145 55 325 134 448 197 743 411 841 609 37 75
39 84 39 174 0 87 -3 102 -32 161 -59 123 -159 195 -333 240 -65 17 -241 19
-341 4z"/>
</g>
</svg>
